HIERARCHY
ROOT Hips
{
	OFFSET 0.000000 87.230942 0.000000
	CHANNELS 6 Xposition Yposition Zposition Xrotation Yrotation Zrotation
	JOINT Pelvis
	{
		OFFSET 0.000000 0.000000 0.000000
		CHANNELS 3 Xrotation Yrotation Zrotation
		JOINT LeftUpLeg
		{
			OFFSET 12.017000 -9.376404 -2.439400
			CHANNELS 3 Xrotation Yrotation Zrotation
			JOINT LeftLeg
			{
				OFFSET -0.007312 -32.846973 2.110600
				CHANNELS 3 Xrotation Yrotation Zrotation
				JOINT LeftFoot
				{
					OFFSET 0.007312 -32.065170 -0.570400
					CHANNELS 3 Xrotation Yrotation Zrotation
					JOINT LeftToeBase
					{
						OFFSET 0.728300 -11.045900 13.180700
						CHANNELS 3 Xrotation Yrotation Zrotation
						End Site
						{
							OFFSET 0.000000 17.212589 0.000000
						}
					}
				}
				JOINT LeftPantLeg
				{
					OFFSET 0.002788 -16.709013 -3.143600
					CHANNELS 3 Xrotation Yrotation Zrotation
					End Site
					{
						OFFSET -0.605125 24.528742 0.000000
					}
				}
			}
			JOINT Left_Butt
			{
				OFFSET -6.630234 1.326584 -3.183700
				CHANNELS 3 Xrotation Yrotation Zrotation
				End Site
				{
					OFFSET -0.498041 20.188049 0.000000
				}
			}
		}
		JOINT RightUpLeg
		{
			OFFSET -11.717000 -9.376404 -2.439400
			CHANNELS 3 Xrotation Yrotation Zrotation
			JOINT RightLeg
			{
				OFFSET -0.003241 -32.846912 2.110600
				CHANNELS 3 Xrotation Yrotation Zrotation
				JOINT RightFoot
				{
					OFFSET 0.003241 -32.065136 -0.570500
					CHANNELS 3 Xrotation Yrotation Zrotation
					JOINT RightToeBase
					{
						OFFSET -0.728300 -11.045901 13.180700
						CHANNELS 3 Xrotation Yrotation Zrotation
						End Site
						{
							OFFSET 0.000000 17.212593 0.000000
						}
					}
				}
				JOINT RightPantLeg
				{
					OFFSET 0.008142 -16.708982 -3.143700
					CHANNELS 3 Xrotation Yrotation Zrotation
					End Site
					{
						OFFSET 0.605088 24.528715 0.000000
					}
				}
			}
			JOINT Right_Butt
			{
				OFFSET 6.630732 1.326584 -3.183700
				CHANNELS 3 Xrotation Yrotation Zrotation
				End Site
				{
					OFFSET 0.498015 20.188240 0.000000
				}
			}
		}
	}
	JOINT Spine
	{
		OFFSET -0.062400 7.848404 3.918300
		CHANNELS 3 Xrotation Yrotation Zrotation
		JOINT Spine1
		{
			OFFSET -0.072800 11.422302 0.713400
			CHANNELS 3 Xrotation Yrotation Zrotation
			JOINT Spine2
			{
				OFFSET -0.083200 13.054001 -1.931600
				CHANNELS 3 Xrotation Yrotation Zrotation
				JOINT Neck
				{
					OFFSET -0.092200 14.121796 -5.138800
					CHANNELS 3 Xrotation Yrotation Zrotation
					JOINT Head
					{
						OFFSET 0.000200 10.447403 -0.842000
						CHANNELS 3 Xrotation Yrotation Zrotation
						JOINT Visor
						{
							OFFSET 0.457100 25.671204 16.550400
							CHANNELS 3 Xrotation Yrotation Zrotation
							End Site
							{
								OFFSET 0.000000 26.061493 0.000000
							}
						}
						JOINT HairMidA
						{
							OFFSET 0.459400 31.585403 8.437400
							CHANNELS 3 Xrotation Yrotation Zrotation
							End Site
							{
								OFFSET 0.000000 26.061493 0.000000
							}
						}
						JOINT HairMidB
						{
							OFFSET 0.464000 33.309204 -8.389700
							CHANNELS 3 Xrotation Yrotation Zrotation
							End Site
							{
								OFFSET 0.000000 26.061493 0.000000
							}
						}
						JOINT HairMidC
						{
							OFFSET 0.466600 27.991196 -17.375099
							CHANNELS 3 Xrotation Yrotation Zrotation
							End Site
							{
								OFFSET 0.000000 26.061493 0.000000
							}
						}
						JOINT HairMidD
						{
							OFFSET 0.467700 17.888092 -21.169500
							CHANNELS 3 Xrotation Yrotation Zrotation
							End Site
							{
								OFFSET 0.000000 26.061493 0.000000
							}
						}
						JOINT HairMidE
						{
							OFFSET 5.325700 3.514603 -14.369699
							CHANNELS 3 Xrotation Yrotation Zrotation
							End Site
							{
								OFFSET 0.000000 26.061493 0.000000
							}
						}
						JOINT HairMidF
						{
							OFFSET -4.394100 3.514603 -14.372400
							CHANNELS 3 Xrotation Yrotation Zrotation
							End Site
							{
								OFFSET 0.000000 26.061493 0.000000
							}
						}
						JOINT HairLeftA
						{
							OFFSET 15.319900 25.746506 2.623300
							CHANNELS 3 Xrotation Yrotation Zrotation
							End Site
							{
								OFFSET 0.000000 26.061493 0.000000
							}
						}
						JOINT HairLeftB
						{
							OFFSET 12.619500 29.289398 -8.731499
							CHANNELS 3 Xrotation Yrotation Zrotation
							End Site
							{
								OFFSET 0.000000 26.061493 0.000000
							}
						}
						JOINT HairLeftC
						{
							OFFSET 15.714800 15.959900 2.909800
							CHANNELS 3 Xrotation Yrotation Zrotation
							End Site
							{
								OFFSET 0.000000 26.061493 0.000000
							}
						}
						JOINT HairLeftD
						{
							OFFSET 16.101700 18.437408 -7.553200
							CHANNELS 3 Xrotation Yrotation Zrotation
							End Site
							{
								OFFSET 0.000000 26.061493 0.000000
							}
						}
						JOINT HairLeftE
						{
							OFFSET 9.731900 17.915009 -18.316799
							CHANNELS 3 Xrotation Yrotation Zrotation
							End Site
							{
								OFFSET 0.000000 26.061493 0.000000
							}
						}
						JOINT HairLeftF
						{
							OFFSET 11.204300 4.953598 -9.668100
							CHANNELS 3 Xrotation Yrotation Zrotation
							End Site
							{
								OFFSET 0.000000 26.061493 0.000000
							}
						}
						JOINT HairRightA
						{
							OFFSET -14.397900 25.746307 2.615100
							CHANNELS 3 Xrotation Yrotation Zrotation
							End Site
							{
								OFFSET 0.000000 26.061493 0.000000
							}
						}
						JOINT HairRightB
						{
							OFFSET -11.691200 29.289200 -8.738199
							CHANNELS 3 Xrotation Yrotation Zrotation
							End Site
							{
								OFFSET 0.000000 26.061493 0.000000
							}
						}
						JOINT HairRightC
						{
							OFFSET -14.792900 15.959702 2.901400
							CHANNELS 3 Xrotation Yrotation Zrotation
							End Site
							{
								OFFSET 0.000000 26.061493 0.000000
							}
						}
						JOINT HairRightD
						{
							OFFSET -15.174000 18.437195 -7.561900
							CHANNELS 3 Xrotation Yrotation Zrotation
							End Site
							{
								OFFSET 0.000000 26.061493 0.000000
							}
						}
						JOINT HairRightE
						{
							OFFSET -8.798200 17.914902 -18.322001
							CHANNELS 3 Xrotation Yrotation Zrotation
							End Site
							{
								OFFSET 0.000000 26.061493 0.000000
							}
						}
						JOINT HairRightF
						{
							OFFSET -10.275200 4.953506 -9.674099
							CHANNELS 3 Xrotation Yrotation Zrotation
							End Site
							{
								OFFSET 0.000000 26.061493 0.000000
							}
						}
					}
				}
				JOINT LeftShoulder
				{
					OFFSET 5.133500 7.341202 -1.867600
					CHANNELS 3 Xrotation Yrotation Zrotation
					JOINT LeftArm
					{
						OFFSET 8.072663 0.936867 -2.176600
						CHANNELS 3 Xrotation Yrotation Zrotation
						JOINT LeftForeArm
						{
							OFFSET 31.271999 0.000000 0.000000
							CHANNELS 3 Xrotation Yrotation Zrotation
							JOINT LeftHand
							{
								OFFSET 31.771030 0.000000 0.000000
								CHANNELS 3 Xrotation Yrotation Zrotation
								JOINT LeftHandThumb1
								{
									OFFSET 2.886520 -2.557846 4.416640
									CHANNELS 3 Xrotation Yrotation Zrotation
									JOINT LeftHandThumb2
									{
										OFFSET 2.371025 -1.368912 1.368911
										CHANNELS 3 Xrotation Yrotation Zrotation
										JOINT LeftHandThumb3
										{
											OFFSET 2.243378 -1.295212 1.295213
											CHANNELS 3 Xrotation Yrotation Zrotation
											End Site
											{
												OFFSET -0.332611 2.876945 0.020015
											}
										}
									}
								}
								JOINT LeftHandIndex1
								{
									OFFSET 8.568985 -0.641945 3.119977
									CHANNELS 3 Xrotation Yrotation Zrotation
									JOINT LeftHandIndex2
									{
										OFFSET 3.348503 0.000000 0.000000
										CHANNELS 3 Xrotation Yrotation Zrotation
										JOINT LeftHandIndex3
										{
											OFFSET 3.314552 0.000000 0.000000
											CHANNELS 3 Xrotation Yrotation Zrotation
											End Site
											{
												OFFSET -1.032898 3.075485 0.678796
											}
										}
									}
								}
								JOINT LeftHandMiddle1
								{
									OFFSET 8.124603 0.000000 0.000000
									CHANNELS 3 Xrotation Yrotation Zrotation
									JOINT LeftHandMiddle2
									{
										OFFSET 4.166275 0.000000 0.000000
										CHANNELS 3 Xrotation Yrotation Zrotation
										JOINT LeftHandMiddle3
										{
											OFFSET 3.018135 0.000000 0.000000
											CHANNELS 3 Xrotation Yrotation Zrotation
											End Site
											{
												OFFSET -1.032700 2.767982 0.617226
											}
										}
									}
								}
								JOINT LeftHandRing1
								{
									OFFSET 8.571686 -0.031357 -2.884048
									CHANNELS 3 Xrotation Yrotation Zrotation
									JOINT LeftHandRing2
									{
										OFFSET 3.671181 0.000000 0.000000
										CHANNELS 3 Xrotation Yrotation Zrotation
										JOINT LeftHandRing3
										{
											OFFSET 2.728851 0.000000 0.000000
											CHANNELS 3 Xrotation Yrotation Zrotation
											End Site
											{
												OFFSET -0.815796 2.539223 0.577389
											}
										}
									}
								}
								JOINT LeftHandPinky1
								{
									OFFSET 7.854515 -0.675232 -5.213020
									CHANNELS 3 Xrotation Yrotation Zrotation
									JOINT LeftHandPinky2
									{
										OFFSET 3.068596 0.000000 0.000000
										CHANNELS 3 Xrotation Yrotation Zrotation
										JOINT LeftHandPinky3
										{
											OFFSET 2.396042 0.000000 0.000000
											CHANNELS 3 Xrotation Yrotation Zrotation
											End Site
											{
												OFFSET -0.524597 2.267998 0.567429
											}
										}
									}
								}
							}
							JOINT LeftSleeve
							{
								OFFSET 19.684509 -0.200119 0.476146
								CHANNELS 3 Xrotation Yrotation Zrotation
								End Site
								{
									OFFSET -0.031017 25.731133 -0.002868
								}
							}
						}
					}
				}
				JOINT RightShoulder
				{
					OFFSET -4.395900 7.341202 -1.870200
					CHANNELS 3 Xrotation Yrotation Zrotation
					JOINT RightArm
					{
						OFFSET -8.071453 0.936867 -2.181100
						CHANNELS 3 Xrotation Yrotation Zrotation
						JOINT RightForeArm
						{
							OFFSET -31.272011 0.000000 0.000000
							CHANNELS 3 Xrotation Yrotation Zrotation
							JOINT RightHand
							{
								OFFSET -31.771019 0.000000 0.000000
								CHANNELS 3 Xrotation Yrotation Zrotation
								JOINT RightHandThumb1
								{
									OFFSET -2.886520 -2.557808 4.416626
									CHANNELS 3 Xrotation Yrotation Zrotation
									JOINT RightHandThumb2
									{
										OFFSET -2.371056 -1.368927 1.368928
										CHANNELS 3 Xrotation Yrotation Zrotation
										JOINT RightHandThumb3
										{
											OFFSET -2.243362 -1.295204 1.295206
											CHANNELS 3 Xrotation Yrotation Zrotation
											End Site
											{
												OFFSET 0.332642 2.876938 0.020047
											}
										}
									}
								}
								JOINT RightHandIndex1
								{
									OFFSET -8.568993 -0.641953 3.120017
									CHANNELS 3 Xrotation Yrotation Zrotation
									JOINT RightHandIndex2
									{
										OFFSET -3.348518 0.000000 0.000000
										CHANNELS 3 Xrotation Yrotation Zrotation
										JOINT RightHandIndex3
										{
											OFFSET -3.314552 0.000000 0.000000
											CHANNELS 3 Xrotation Yrotation Zrotation
											End Site
											{
												OFFSET 1.032898 3.075478 0.678804
											}
										}
									}
								}
								JOINT RightHandMiddle1
								{
									OFFSET -8.124588 0.000000 0.000000
									CHANNELS 3 Xrotation Yrotation Zrotation
									JOINT RightHandMiddle2
									{
										OFFSET -4.166275 0.000000 0.000000
										CHANNELS 3 Xrotation Yrotation Zrotation
										JOINT RightHandMiddle3
										{
											OFFSET -3.018097 0.000000 0.000000
											CHANNELS 3 Xrotation Yrotation Zrotation
											End Site
											{
												OFFSET 1.032700 2.767937 0.617197
											}
										}
									}
								}
								JOINT RightHandRing1
								{
									OFFSET -8.571747 -0.031349 -2.884061
									CHANNELS 3 Xrotation Yrotation Zrotation
									JOINT RightHandRing2
									{
										OFFSET -3.671204 0.000000 0.000000
										CHANNELS 3 Xrotation Yrotation Zrotation
										JOINT RightHandRing3
										{
											OFFSET -2.728874 0.000000 0.000000
											CHANNELS 3 Xrotation Yrotation Zrotation
											End Site
											{
												OFFSET 0.815804 2.539261 0.577413
											}
										}
									}
								}
								JOINT RightHandPinky1
								{
									OFFSET -7.854561 -0.675247 -5.212970
									CHANNELS 3 Xrotation Yrotation Zrotation
									JOINT RightHandPinky2
									{
										OFFSET -3.068550 0.000000 0.000000
										CHANNELS 3 Xrotation Yrotation Zrotation
										JOINT RightHandPinky3
										{
											OFFSET -2.395981 0.000000 0.000000
											CHANNELS 3 Xrotation Yrotation Zrotation
											End Site
											{
												OFFSET 0.524605 2.267952 0.567413
											}
										}
									}
								}
							}
							JOINT RightSleeve
							{
								OFFSET -19.684753 -0.200165 0.476065
								CHANNELS 3 Xrotation Yrotation Zrotation
								End Site
								{
									OFFSET 0.031342 25.731255 -0.002917
								}
							}
						}
					}
				}
				JOINT Hood
				{
					OFFSET 0.369700 14.447800 -5.317800
					CHANNELS 3 Xrotation Yrotation Zrotation
					JOINT Hood1
					{
						OFFSET 0.001700 -5.553802 -5.895100
						CHANNELS 3 Xrotation Yrotation Zrotation
						JOINT Hood2
						{
							OFFSET -0.000200 -8.380501 0.763600
							CHANNELS 3 Xrotation Yrotation Zrotation
							End Site
							{
								OFFSET 0.000000 8.415215 0.000000
							}
						}
					}
				}
				JOINT Left_Breast
				{
					OFFSET 5.682500 3.120102 3.188800
					CHANNELS 3 Xrotation Yrotation Zrotation
					End Site
					{
						OFFSET 0.000000 10.528564 0.000000
					}
				}
				JOINT Right_Breast
				{
					OFFSET -4.947600 3.120102 3.185900
					CHANNELS 3 Xrotation Yrotation Zrotation
					End Site
					{
						OFFSET 0.000000 10.528564 0.000000
					}
				}
				JOINT Whistle
				{
					OFFSET 0.368200 11.471298 0.095400
					CHANNELS 3 Xrotation Yrotation Zrotation
					JOINT Whistle1
					{
						OFFSET -0.002000 -6.349899 7.479800
						CHANNELS 3 Xrotation Yrotation Zrotation
						JOINT Whistle2
						{
							OFFSET -0.001300 -8.217598 4.717600
							CHANNELS 3 Xrotation Yrotation Zrotation
							End Site
							{
								OFFSET 0.000000 9.475479 0.000000
							}
						}
					}
				}
			}
		}
		JOINT Belly
		{
			OFFSET 0.212400 1.593002 3.163700
			CHANNELS 3 Xrotation Yrotation Zrotation
			End Site
			{
				OFFSET 0.000000 7.496635 0.000000
			}
		}
	}
	JOINT FitGrandmaFacialAnim_Joint
	{
		OFFSET 1.150000 -86.211197 -1.220100
		CHANNELS 3 Xrotation Yrotation Zrotation
		End Site
		{
			OFFSET 0.000000 31.666618 0.000000
		}
	}
}
MOTION
Frames: 4
Frame Time: 0.016667
-1.401899 121.615807 5.267639 5.963770 -20.742373 10.457250 0.000000 0.000001 0.000000 -86.736026 -3.892924 25.395437 54.322649 -5.472523 -13.947453 9.404241 -8.341765 12.012475 0.000000 0.000000 -0.000001 0.000002 -0.000000 0.000000 0.000000 0.000000 -0.000001 -88.504533 6.640176 8.110015 128.718221 -5.923659 -2.199335 15.827305 2.244466 -2.065298 0.000002 -0.000001 0.000000 -0.000001 -0.000001 0.000001 0.000000 -0.000000 0.000000 34.386396 -5.419459 -10.857919 -1.919977 -0.704206 -1.068981 -1.861949 -0.963997 -0.958723 -27.161323 7.980849 9.093855 17.861672 13.973906 -17.635104 -0.000000 0.000000 -0.000000 -0.000000 0.000000 -0.000000 -0.000000 0.000000 -0.000000 -0.000000 0.000000 -0.000000 -0.000000 0.000000 -0.000000 -0.000000 0.000000 -0.000000 -0.000000 0.000000 -0.000000 -0.000000 0.000000 -0.000000 -0.000000 0.000000 -0.000000 -0.000000 0.000000 -0.000000 -0.000000 0.000000 -0.000000 -0.000000 0.000000 -0.000000 -0.000000 0.000000 -0.000000 -0.000000 0.000000 -0.000000 -0.000000 0.000000 -0.000000 -0.000000 0.000000 -0.000000 -0.000000 0.000000 -0.000000 -0.000000 0.000000 -0.000000 -0.000000 0.000000 -0.000000 14.342929 -28.036216 31.312985 -54.053308 10.158294 9.211013 -39.508628 -62.618314 -18.464419 0.677884 -3.694908 5.616509 -4.212059 -7.549080 8.222284 2.840611 18.398120 -2.239070 -0.000001 -0.000000 -0.000003 13.557846 -2.400522 2.442075 -0.158551 0.312384 -41.706890 0.000000 -0.000000 -0.000001 8.872540 -0.946680 -8.698846 0.333514 0.702974 -39.129775 -0.000001 -0.000002 -0.000002 6.417764 2.640992 -21.662580 0.073912 0.361675 -38.094007 -0.000001 -0.000001 0.000002 -5.773333 7.351754 -20.511934 0.248316 0.299193 -53.404020 -0.000003 0.000000 0.000001 0.000000 0.000002 -0.000004 3.778677 7.559643 -24.581258 -73.831449 -14.404387 -24.052253 -51.826181 60.836734 47.494929 9.141608 7.948705 -22.976008 -13.975072 13.836817 -0.527686 10.118312 -39.599446 -4.011429 -0.000000 0.000001 -0.000001 11.271641 3.607145 -9.674700 -0.308890 -0.132959 59.230171 0.000000 -0.000003 0.000001 5.407489 -9.717466 -10.964793 0.477126 -0.644349 52.079906 -0.000003 -0.000000 0.000000 4.999320 -19.199906 -5.805084 0.293151 -0.312922 63.639775 -0.000000 -0.000001 0.000003 10.206703 -27.451358 11.592837 0.317928 -0.173564 82.243879 -0.000003 0.000003 0.000002 0.000001 0.000001 -0.000001 0.000002 0.000000 -0.000000 0.000002 0.000000 -0.000000 0.000002 0.000000 -0.000000 0.000002 0.000000 -0.000000 0.000002 0.000000 -0.000000 0.000002 0.000000 0.000000 0.000001 0.000000 -0.000000 0.000001 0.000000 -0.000000 0.000001 0.000002 -0.000001 0.000000 0.000001 0.000000 
-1.454365 121.552361 9.404143 5.633302 -20.872647 10.167306 -0.000000 -0.000002 0.000001 -84.136101 -3.036323 24.065611 51.268305 -5.670791 -13.505665 10.772555 -7.475377 11.643725 0.000002 -0.000003 0.000001 -0.000001 -0.000000 -0.000000 0.000000 0.000001 -0.000001 -90.881432 5.585065 8.983702 126.258110 -7.349614 -2.316590 17.840166 1.856576 1.854559 -0.000001 0.000000 0.000000 -0.000003 0.000001 -0.000002 -0.000000 -0.000000 -0.000001 34.122969 -5.506464 -10.757425 -1.705499 -0.826085 -1.172770 -1.718722 -1.101917 -0.901945 -26.754457 7.923681 9.300324 17.616750 14.580977 -17.741030 0.000002 0.000000 -0.000000 0.000002 0.000000 -0.000000 0.000002 0.000000 -0.000000 0.000002 0.000000 -0.000000 0.000002 0.000000 -0.000000 0.000002 0.000000 -0.000000 0.000002 0.000000 -0.000000 0.000002 0.000000 -0.000000 0.000002 0.000000 -0.000000 0.000002 0.000000 -0.000000 0.000002 0.000000 -0.000000 0.000002 0.000000 -0.000000 0.000002 0.000000 -0.000000 0.000002 0.000000 -0.000000 0.000002 0.000000 -0.000000 0.000002 0.000000 -0.000000 0.000002 0.000000 -0.000000 0.000002 0.000000 -0.000000 0.000002 0.000000 -0.000000 13.329970 -28.376424 28.717349 -55.448582 15.227879 10.991230 -68.123788 -71.308145 -47.693077 11.233195 4.906545 -1.251266 -4.209895 -7.549283 8.222469 2.840277 18.399235 -2.238916 -0.000005 0.000002 -0.000001 13.557231 -2.399524 2.530739 -0.158567 0.312317 -41.632271 0.000000 -0.000001 0.000000 8.872462 -0.946793 -8.589858 0.333079 0.702595 -39.040473 -0.000000 -0.000004 -0.000001 6.418082 2.640020 -21.526856 0.073520 0.361165 -37.984915 -0.000001 0.000002 -0.000001 -5.768896 7.348704 -20.334969 0.247756 0.298803 -53.267307 0.000000 -0.000004 -0.000000 0.000000 -0.000001 -0.000002 3.694501 8.731539 -22.067279 -77.217672 -16.836297 -27.351923 -55.432391 62.389803 51.618082 16.842389 16.542168 -19.530873 -13.852529 13.688648 -0.611922 9.965729 -39.155169 -3.888440 0.000001 0.000001 -0.000003 11.276136 3.678398 -9.745155 -0.306492 -0.132148 58.914650 -0.000003 0.000001 0.000002 5.433452 -9.621396 -11.002361 0.474239 -0.645753 51.742132 -0.000005 -0.000002 -0.000004 5.046088 -19.088483 -5.820348 0.290793 -0.313044 63.102294 0.000004 -0.000005 -0.000004 10.132936 -27.291945 11.300276 0.315800 -0.176053 81.291293 -0.000000 -0.000003 0.000001 -0.000001 0.000002 0.000003 0.000001 0.000000 -0.000000 0.000001 0.000000 -0.000000 0.000001 0.000000 -0.000000 0.000001 0.000000 -0.000000 0.000001 0.000000 -0.000000 0.000001 0.000000 -0.000000 -0.000003 0.000000 -0.000000 -0.000003 0.000000 -0.000000 0.000000 0.000001 0.000001 -0.000000 -0.000002 0.000001 
-1.617500 121.321739 13.524342 5.293786 -21.134987 10.000653 0.000000 0.000000 -0.000001 -81.082405 -3.138119 22.332540 48.447047 -3.722915 -12.783588 12.242067 -8.187647 10.994002 -0.000001 -0.000001 0.000001 0.000002 -0.000001 -0.000001 0.000001 -0.000002 0.000000 -90.732035 5.127979 8.728153 122.214788 -8.078532 -2.326798 18.641683 1.157078 5.521023 -0.000003 0.000001 -0.000002 0.000001 -0.000000 0.000001 0.000001 0.000000 0.000000 33.280544 -5.553914 -10.502811 -1.359169 -0.996959 -1.581736 -1.480006 -1.199183 -0.910619 -25.746977 7.766828 9.873792 17.083719 15.326019 -18.187474 0.000002 0.000000 -0.000000 0.000002 0.000000 -0.000000 0.000002 0.000000 -0.000000 0.000002 0.000000 -0.000000 0.000002 0.000000 -0.000000 0.000002 0.000000 -0.000000 0.000002 0.000000 -0.000000 0.000002 0.000000 -0.000000 0.000002 0.000000 -0.000000 0.000002 0.000000 -0.000000 0.000002 0.000000 -0.000000 0.000002 0.000000 -0.000000 0.000002 0.000000 -0.000000 0.000002 0.000000 -0.000000 0.000002 0.000000 -0.000000 0.000002 0.000000 -0.000000 0.000002 0.000000 -0.000000 0.000002 0.000000 -0.000000 0.000002 0.000000 -0.000000 11.862462 -27.977722 26.191843 -55.866013 16.656016 11.417594 -90.273736 -72.340002 -70.563531 19.159073 8.441109 -6.769435 -4.203543 -7.550132 8.223039 2.839344 18.402335 -2.238588 0.000002 0.000002 0.000001 13.555474 -2.396725 2.784496 -0.158636 0.312157 -41.417946 0.000003 -0.000002 -0.000002 8.872082 -0.947104 -8.279689 0.331988 0.701587 -38.784836 0.000001 -0.000002 0.000000 6.418727 2.637058 -21.143308 0.072417 0.359736 -37.674244 0.000000 0.000001 0.000002 -5.757131 7.340620 -19.839319 0.246131 0.297675 -52.881042 0.000001 -0.000001 0.000001 -0.000002 -0.000000 0.000001 3.769988 11.074700 -19.093290 -80.238706 -18.402073 -30.381556 -59.729226 63.810072 56.438765 22.161734 22.495025 -18.508155 -13.517972 13.281408 -0.839651 9.540003 -37.919530 -3.541108 -0.000002 0.000002 0.000002 11.289802 3.880597 -9.945024 -0.299510 -0.129975 58.013865 -0.000003 0.000001 0.000002 5.507141 -9.351070 -11.108397 0.465969 -0.649694 50.784099 -0.000000 -0.000002 -0.000000 5.176581 -18.778292 -5.863790 0.284157 -0.313275 61.589960 -0.000002 -0.000001 -0.000003 9.940340 -26.854704 10.500327 0.309560 -0.182884 78.639328 -0.000001 -0.000001 0.000000 -0.000003 0.000002 0.000002 0.000001 -0.000001 0.000000 0.000001 -0.000001 0.000000 0.000001 -0.000001 0.000000 0.000001 -0.000001 0.000000 0.000001 -0.000001 0.000000 0.000001 -0.000001 0.000000 -0.000004 -0.000001 -0.000000 -0.000004 -0.000001 -0.000000 -0.000002 -0.000000 0.000001 0.000000 0.000000 -0.000001 
-1.868142 120.909386 17.592234 4.936011 -21.538083 9.932867 0.000000 -0.000000 0.000000 -77.633795 -4.069170 20.377251 45.310034 -1.194793 -11.907660 13.949861 -8.986907 10.023360 -0.000001 0.000000 0.000000 -0.000000 0.000000 -0.000000 -0.000000 0.000001 0.000000 -88.690047 5.104147 7.829222 117.074374 -7.144514 -2.199758 18.508322 -0.952291 9.541833 -0.000001 0.000001 -0.000001 0.000001 0.000001 -0.000000 -0.000000 0.000000 0.000001 31.947684 -5.496597 -10.112747 -0.846936 -1.225814 -2.282625 -0.947550 -1.280954 -1.065722 -24.462877 7.530891 10.745750 16.255901 16.199315 -18.782568 0.000002 -0.000000 0.000001 0.000002 -0.000000 0.000001 0.000002 -0.000000 0.000001 0.000002 -0.000000 0.000001 0.000002 -0.000000 0.000001 0.000002 -0.000000 0.000001 0.000002 -0.000000 0.000001 0.000002 -0.000000 0.000001 0.000002 -0.000000 0.000001 0.000002 -0.000000 0.000001 0.000002 -0.000000 0.000001 0.000002 -0.000000 0.000001 0.000002 -0.000000 0.000001 0.000002 -0.000000 0.000001 0.000002 -0.000000 0.000001 0.000002 -0.000000 0.000001 0.000002 -0.000000 0.000001 0.000002 -0.000000 0.000001 0.000002 -0.000000 0.000001 9.913576 -27.228086 23.284586 -55.741037 16.364892 11.372917 -102.459108 -71.985973 -83.327925 24.322536 9.290137 -10.411729 -4.193093 -7.551400 8.223951 2.837675 18.407228 -2.238122 -0.000001 0.000002 -0.000002 13.552907 -2.392307 3.184925 -0.158803 0.311834 -41.077769 0.000001 -0.000003 -0.000002 8.871434 -0.947730 -7.793592 0.330238 0.699874 -38.381271 -0.000001 0.000001 -0.000001 6.419549 2.632746 -20.547441 0.070593 0.357324 -37.187276 0.000001 -0.000002 -0.000002 -5.740889 7.329619 -19.078038 0.243599 0.295867 -52.280805 -0.000001 0.000000 0.000002 0.000001 -0.000002 -0.000003 3.679084 13.977360 -16.002221 -82.618276 -19.392420 -32.930528 -63.588774 64.803803 60.717260 25.040903 25.957316 -18.710110 -13.022066 12.669912 -1.171273 8.888030 -36.040367 -2.998097 0.000002 -0.000000 0.000001 11.314028 4.196112 -10.256870 -0.288758 -0.126917 56.596665 -0.000003 -0.000001 0.000001 5.623077 -8.933874 -11.273139 0.452863 -0.655370 49.288424 -0.000007 0.000001 -0.000001 5.376689 -18.306177 -5.932435 0.273744 -0.313144 59.252656 -0.000003 -0.000001 -0.000003 9.678776 -26.201528 9.310122 0.298887 -0.192507 74.597113 -0.000000 -0.000001 -0.000001 0.000000 0.000002 0.000003 -0.000003 0.000001 -0.000000 -0.000003 0.000001 -0.000000 -0.000003 0.000001 -0.000000 -0.000003 0.000001 -0.000000 -0.000003 0.000001 -0.000000 -0.000003 0.000001 0.000001 -0.000005 0.000000 0.000000 -0.000005 0.000000 0.000000 0.000000 0.000000 -0.000001 0.000000 -0.000000 0.000000 
